<?xml version="1.0" encoding="UTF-8" standalone="no"?>

<svg
        version="1.1"
        width="52.235px"
        height="52.235px"
        viewBox="0 0 52.235 52.235"
        xmlns="http://www.w3.org/2000/svg"
        xmlns:svg="http://www.w3.org/2000/svg"
>
    <path
            style="fill:CurrentColor;"
            d="M 26.931641 9.5449219 C 22.966449 9.5449219 19.379933 10.026439 16.726562 10.828125 C 15.399876 11.228969 14.303316 11.705735 13.492188 12.285156 C 12.68105 12.864578 12.097656 13.60561 12.097656 14.498047 C 12.097656 14.685636 12.129434 14.864865 12.177734 15.039062 L 12.177734 35.488281 A 0.67394433 0.67394433 0 0 0 12.197266 35.511719 C 12.191566 35.544089 12.181774 35.574822 12.177734 35.607422 A 0.67394433 0.67394433 0 0 0 12.175781 35.689453 C 12.175983 36.58064 12.755467 37.324711 13.564453 37.904297 C 14.373441 38.483882 15.464067 38.958429 16.787109 39.359375 C 19.433191 40.161268 23.012876 40.640598 26.966797 40.640625 C 30.920718 40.640598 34.500401 40.161268 37.146484 39.359375 C 38.469526 38.958429 39.560153 38.483882 40.369141 37.904297 C 41.178129 37.324711 41.757613 36.58064 41.757812 35.689453 A 0.67394433 0.67394433 0 0 0 41.757812 35.6875 C 41.757706 35.62729 41.751774 35.569709 41.746094 35.509766 A 0.67394433 0.67394433 0 0 0 41.763672 35.490234 L 41.763672 14.636719 A 0.67394433 0.67394433 0 0 0 41.757812 14.615234 C 41.760112 14.576264 41.767578 14.53761 41.767578 14.498047 C 41.767578 13.60561 41.182227 12.864578 40.371094 12.285156 C 39.559958 11.705742 38.465356 11.228969 37.138672 10.828125 C 34.4853 10.026439 30.896831 9.5449219 26.931641 9.5449219 z M 26.931641 10.894531 C 30.786651 10.894531 34.278556 11.372424 36.75 12.119141 C 37.98572 12.492502 38.965981 12.938562 39.587891 13.382812 C 40.209801 13.827065 40.417969 14.209093 40.417969 14.498047 C 40.417969 14.500347 40.417994 14.503559 40.417969 14.505859 A 0.67394433 0.67394433 0 0 0 40.396484 14.564453 C 40.365844 14.850816 40.104856 15.260524 39.453125 15.697266 C 38.801393 16.134005 37.808692 16.563364 36.578125 16.923828 C 36.271005 17.013788 35.947181 17.100232 35.611328 17.181641 C 35.605628 17.182941 35.59941 17.18232 35.59375 17.183594 C 35.262971 17.263494 34.918713 17.341222 34.5625 17.412109 C 34.5551 17.413509 34.544509 17.414616 34.537109 17.416016 C 34.191269 17.484536 33.836322 17.550006 33.46875 17.609375 C 33.354978 17.627665 33.232916 17.640813 33.117188 17.658203 C 32.841223 17.699833 32.56576 17.743077 32.279297 17.779297 C 32.157207 17.794657 32.030147 17.807916 31.90625 17.822266 C 31.195495 17.905016 30.459996 17.970519 29.697266 18.017578 C 28.803675 18.072208 27.878909 18.101563 26.931641 18.101562 C 25.99476 18.101562 25.079632 18.073001 24.195312 18.019531 C 23.977121 18.006231 23.765182 17.988976 23.550781 17.972656 C 23.350972 17.957516 23.149299 17.943471 22.953125 17.925781 C 22.681773 17.901191 22.418341 17.871117 22.154297 17.841797 C 22.008228 17.825637 21.86043 17.810549 21.716797 17.792969 C 21.462243 17.761759 21.213392 17.724955 20.966797 17.689453 C 20.818734 17.668193 20.670366 17.64775 20.525391 17.625 C 20.31054 17.59121 20.10235 17.5565 19.894531 17.519531 C 19.721567 17.488841 19.548634 17.458581 19.380859 17.425781 C 19.165749 17.383631 18.956218 17.338473 18.75 17.292969 C 18.631729 17.266939 18.513628 17.241934 18.398438 17.214844 C 18.166308 17.160124 17.939834 17.103789 17.720703 17.044922 C 17.630603 17.020782 17.54288 16.995503 17.455078 16.970703 C 17.21823 16.903563 16.990677 16.833489 16.771484 16.761719 C 16.724124 16.746249 16.675398 16.730514 16.628906 16.714844 C 16.398884 16.637174 16.178739 16.558442 15.970703 16.476562 C 15.925143 16.458642 15.880396 16.439975 15.835938 16.421875 C 15.632402 16.338975 15.439298 16.255919 15.259766 16.169922 C 15.231416 16.156372 15.205474 16.142506 15.177734 16.128906 C 14.986635 16.034876 14.806922 15.938174 14.646484 15.841797 C 13.945478 15.420697 13.583482 14.988801 13.494141 14.689453 A 0.67394433 0.67394433 0 0 0 13.466797 14.650391 C 13.454497 14.597761 13.447266 14.545717 13.447266 14.498047 C 13.447266 14.209093 13.655436 13.827065 14.277344 13.382812 C 14.899254 12.938562 15.879513 12.492502 17.115234 12.119141 C 19.586676 11.372424 23.076629 10.894531 26.931641 10.894531 z M 40.416016 16.677734 L 40.416016 20.513672 L 40.419922 20.513672 L 40.419922 22.277344 C 40.310756 22.436156 40.110999 22.634773 39.75 22.861328 C 39.288364 23.151045 38.621675 23.444492 37.800781 23.712891 A 8.8088209 8.7433615 0 0 1 38.691406 24.976562 C 39.348404 24.740999 39.932759 24.482794 40.419922 24.191406 L 40.419922 29.40625 C 40.319703 29.55191 40.13701 29.732026 39.830078 29.935547 A 8.8062639 8.7433615 0 0 1 39.521484 31.779297 C 39.847049 31.634775 40.148132 31.482928 40.419922 31.320312 L 40.419922 33.898438 L 40.416016 33.898438 L 40.416016 35.488281 L 40.441406 35.464844 A 0.67394433 0.67394433 0 0 0 40.404297 35.59375 C 40.409497 35.62692 40.412009 35.659316 40.412109 35.691406 C 40.411623 35.981675 40.203404 36.362867 39.583984 36.806641 C 38.963935 37.250866 37.987856 37.69891 36.755859 38.072266 C 34.291863 38.818977 30.810352 39.294896 26.966797 39.294922 C 23.123243 39.294896 19.641729 38.818977 17.177734 38.072266 C 15.945736 37.69891 14.969659 37.250866 14.349609 36.806641 C 13.736759 36.367576 13.536123 35.992255 13.53125 35.703125 C 13.53375 35.692475 13.532032 35.682815 13.535156 35.671875 A 0.67394433 0.67394433 0 0 0 13.523438 35.263672 L 13.523438 33.898438 L 13.517578 33.898438 L 13.517578 31.478516 C 14.297276 31.899315 15.272053 32.25329 16.421875 32.558594 C 18.335076 33.066592 20.731002 33.426175 23.396484 33.595703 A 8.8062639 8.7433615 0 0 1 22.708984 32.056641 C 20.435786 31.874226 18.409019 31.54708 16.804688 31.121094 C 15.542559 30.78597 14.539981 30.384392 13.912109 29.990234 C 13.746199 29.886081 13.623243 29.789003 13.517578 29.697266 L 13.517578 24.353516 C 14.296268 24.772564 15.26754 25.125348 16.414062 25.429688 C 18.18123 25.898774 20.359318 26.242027 22.78125 26.425781 A 8.8088209 8.7433615 0 0 1 23.453125 24.978516 C 20.875811 24.811864 18.575293 24.46426 16.796875 23.992188 C 15.534381 23.657062 14.532352 23.255486 13.904297 22.861328 C 13.74194 22.759435 13.621727 22.664193 13.517578 22.574219 L 13.517578 20.513672 L 13.523438 20.513672 L 13.523438 16.732422 C 14.222074 17.225413 15.137101 17.639801 16.216797 18 C 16.256517 18.01329 16.293787 18.027896 16.333984 18.041016 C 16.465084 18.083736 16.590545 18.126883 16.726562 18.167969 C 16.860094 18.208329 17.004387 18.244505 17.142578 18.283203 C 17.166258 18.289803 17.187127 18.298096 17.210938 18.304688 C 17.239708 18.312587 17.273754 18.320235 17.302734 18.328125 C 17.578614 18.403185 17.86133 18.472648 18.154297 18.541016 C 18.211357 18.554336 18.268497 18.568971 18.326172 18.582031 C 18.628052 18.650361 18.935634 18.71636 19.253906 18.777344 C 19.308896 18.787884 19.366429 18.796331 19.421875 18.806641 C 19.745301 18.866771 20.073413 18.922327 20.412109 18.974609 C 20.456159 18.981409 20.502574 18.989434 20.546875 18.996094 C 22.088492 19.228016 23.771938 19.380696 25.556641 19.431641 C 25.624381 19.433641 25.693718 19.433847 25.761719 19.435547 C 26.148531 19.444947 26.536783 19.451172 26.931641 19.451172 C 30.896831 19.451172 34.485301 18.969659 37.138672 18.167969 C 38.465357 17.767128 39.559961 17.290358 40.371094 16.710938 C 40.386214 16.700128 40.401056 16.688644 40.416016 16.677734 z "/>
    <path
            style="fill:CurrentColor;"
            d="m 31.065245,21.146235 c -4.521216,0 -8.20711,3.685894 -8.20711,8.20711 0,4.521217 3.685894,8.205078 8.20711,8.205078 4.521218,0 8.20711,-3.683861 8.20711,-8.205078 0,-4.521216 -3.685892,-8.20711 -8.20711,-8.20711 z m 0,1.858137 c 3.516817,0 6.346941,2.832156 6.346941,6.348973 0,3.516816 -2.830124,6.346941 -6.346941,6.346941 -3.516817,0 -6.34694,-2.830125 -6.34694,-6.346941 0,-3.516817 2.830123,-6.348973 6.34694,-6.348973 z"
    />
    <g
            transform="matrix(0.71697177,0.71697177,-0.71697177,0.71697177,0.06844091,-0.7721217)">

        <path
                style="fill:CurrentColor;"
                d="m 49.941406,-2.0273438 a 0.57265226,0.57265226 0 0 0 -0.572265,0.5722657 v 1.57421872 a 0.57265226,0.57265226 0 0 0 0.572265,0.57226563 h 9.232422 A 0.57265226,0.57265226 0 0 0 59.746094,0.11914062 V -1.4550781 a 0.57265226,0.57265226 0 0 0 -0.572266,-0.5722657 z m 0.574219,1.1445313 h 8.083984 v 0.42773437 h -8.083984 z"
        />
    </g>
</svg>
