<!DOCTYPE svg PUBLIC "-//W3C//DTD SVG 1.1//EN" "http://www.w3.org/Graphics/SVG/1.1/DTD/svg11.dtd">
<?xml-stylesheet type="text/css" href="../../../../pixelegg/less/svg.css" ?>
<svg version="1.1" id="phpbrain_navbar" xmlns="http://www.w3.org/2000/svg" xmlns:xlink="http://www.w3.org/1999/xlink" x="0px"
	 y="0px" width="28.347px" height="28.347px" viewBox="0 0 28.347 28.347" enable-background="new 0 0 28.347 28.347"
	 xml:space="preserve">
<g>
	<path fill-rule="evenodd" clip-rule="evenodd" fill="#ECEDED" d="M7.33,15.913v-2.58h1.001V9.829H5.75v-1h5.582l0.015,1.125
		c2.812-2.259,5.948-1.008,5.88-1.41c-0.609-3.532-3.688-6.219-7.395-6.219c-4.145,0-7.505,3.36-7.505,7.504
		c0,3.708,2.688,6.788,6.223,7.396c0.381,0.065,0.135-0.739,0.103-1.312H7.33z M9.828,3.915c1.089,0,1.973,0.883,1.973,1.973
		S10.917,7.86,9.828,7.86S7.854,6.978,7.854,5.888S8.739,3.915,9.828,3.915z"/>
	<path fill-rule="evenodd" clip-rule="evenodd" fill="#ECEDED" d="M25.849,23.779l-2.482-2.482c-0.229-0.229-0.599-0.229-0.827,0
		l-0.067,0.067l-1.055-1.057c0.904-1.145,1.448-2.586,1.448-4.158c0-3.709-3.006-6.715-6.715-6.715
		c-3.708,0-6.714,3.006-6.714,6.715s3.006,6.715,6.714,6.715c1.571,0,3.015-0.544,4.158-1.449l1.056,1.056l-0.067,0.067
		c-0.228,0.229-0.228,0.599,0,0.827l2.483,2.483c0.229,0.229,0.6,0.229,0.828,0l1.24-1.242
		C26.078,24.378,26.078,24.008,25.849,23.779z M16.151,21.28c-2.834,0-5.13-2.297-5.13-5.131s2.296-5.13,5.13-5.13
		s5.13,2.296,5.13,5.13S18.985,21.28,16.151,21.28z"/>
</g>
</svg>
